<?xml version="1.0" standalone="no"?>
<!DOCTYPE svg PUBLIC "-//W3C//DTD SVG 20010904//EN"
 "http://www.w3.org/TR/2001/REC-SVG-20010904/DTD/svg10.dtd">
<svg version="1.0" xmlns="http://www.w3.org/2000/svg"
 width="140.000000pt" height="140.000000pt" viewBox="0 0 140.000000 140.000000"
 preserveAspectRatio="xMidYMid meet">
<metadata>
Created by potrace 1.16, written by Peter Selinger 2001-2019
</metadata>
<g transform="translate(0.000000,140.000000) scale(0.100000,-0.100000)"
fill="#000000" stroke="none">
<path d="M610 1391 c-47 -15 -85 -39 -123 -78 -64 -63 -80 -105 -85 -215 l-4
-98 -119 0 c-74 0 -120 -4 -125 -11 -12 -20 -95 -793 -91 -851 2 -44 9 -64 28
-84 52 -55 35 -54 609 -54 574 0 557 -1 609 54 19 20 26 40 29 84 3 56 -81
833 -93 852 -4 6 -57 10 -124 10 l-119 0 -4 98 c-5 110 -21 152 -85 215 -60
61 -106 80 -198 83 -44 2 -91 0 -105 -5z m178 -119 c70 -32 112 -117 112 -227
l0 -45 -200 0 -200 0 0 45 c0 89 19 145 65 191 62 62 139 75 223 36z m365
-404 c3 -18 23 -190 43 -382 l38 -349 -23 -18 c-22 -18 -50 -19 -511 -19 -464
0 -489 1 -511 19 l-24 19 39 353 c21 195 41 366 43 382 l6 27 447 0 448 0 5
-32z"/>
</g>
</svg>
