<?xml version="1.0" standalone="no"?>
<!DOCTYPE svg PUBLIC "-//W3C//DTD SVG 20010904//EN"
 "http://www.w3.org/TR/2001/REC-SVG-20010904/DTD/svg10.dtd">
<svg version="1.0" xmlns="http://www.w3.org/2000/svg"
 width="140.000000pt" height="140.000000pt" viewBox="0 0 140.000000 140.000000"
 preserveAspectRatio="xMidYMid meet">
<g transform="translate(0.000000,140.000000) scale(0.100000,-0.100000)"
fill="#000000" stroke="none">
<path d="M433 1385 c-199 -54 -366 -222 -418 -422 -19 -73 -19 -241 0 -313 50
-188 216 -359 402 -413 175 -52 405 -13 526 89 l30 25 176 -175 c179 -179 206
-197 239 -164 33 33 15 60 -163 238 l-174 174 25 33 c44 58 82 147 100 233 60
298 -112 594 -399 685 -64 20 -98 25 -185 24 -59 0 -131 -7 -159 -14z m313
-114 c102 -28 229 -143 284 -257 175 -363 -167 -780 -555 -679 -161 42 -298
172 -347 328 -22 71 -26 201 -8 269 19 72 71 157 133 220 124 126 306 170 493
119z"/>
</g>
</svg>
