<?xml version="1.0" standalone="no"?>
<!DOCTYPE svg PUBLIC "-//W3C//DTD SVG 20010904//EN"
 "http://www.w3.org/TR/2001/REC-SVG-20010904/DTD/svg10.dtd">
<svg version="1.0" xmlns="http://www.w3.org/2000/svg"
 width="140.000000pt" height="140.000000pt" viewBox="0 0 140.000000 140.000000"
 preserveAspectRatio="xMidYMid meet">
<metadata>
Created by potrace 1.16, written by Peter Selinger 2001-2019
</metadata>
<g transform="translate(0.000000,140.000000) scale(0.100000,-0.100000)"
fill="#000000" stroke="none">
<path d="M558 1377 c-94 -40 -159 -104 -205 -204 -23 -49 -27 -72 -27 -148 0
-80 3 -98 30 -155 38 -80 110 -155 184 -189 48 -23 68 -26 160 -26 92 0 112 3
160 26 74 34 146 109 184 189 27 57 30 76 30 155 0 79 -3 98 -30 155 -38 80
-110 155 -184 189 -82 37 -222 41 -302 8z m255 -110 c88 -37 157 -143 157
-242 0 -145 -124 -267 -270 -267 -229 0 -352 267 -203 441 79 93 197 118 316
68z"/>
<path d="M535 535 c-170 -42 -323 -150 -419 -293 -72 -109 -102 -202 -74 -230
17 -17 1299 -17 1316 0 28 28 0 116 -75 230 -94 144 -249 252 -423 294 -68 16
-258 16 -325 -1z m290 -106 c141 -25 299 -137 381 -271 l33 -53 -270 -3 c-148
-1 -390 -1 -538 0 l-270 3 33 53 c100 163 274 268 471 284 40 4 87 0 160 -13z"/>
</g>
</svg>
